<?xml version="1.0" encoding="utf-8"?>
<!-- Generator: Adobe Illustrator 23.0.1, SVG Export Plug-In . SVG Version: 6.00 Build 0)  -->
<svg version="1.1" id="Layer_1" xmlns="http://www.w3.org/2000/svg" xmlns:xlink="http://www.w3.org/1999/xlink" x="0px" y="0px"
	 viewBox="0 0 752.1 1290" style="enable-background:new 0 0 752.1 1290;" xml:space="preserve">
<style type="text/css">
	.st0{fill:none;stroke:#FFFFFF;stroke-width:1.94;stroke-linecap:round;stroke-linejoin:round;}
	.st1{fill:none;stroke:#FFFFFF;stroke-width:1.45;stroke-linecap:round;stroke-linejoin:round;}
	.st2{fill:none;stroke:#FFFFFF;stroke-width:3.34;stroke-linejoin:round;}
	.st3{fill:none;stroke:#FFFFFF;stroke-width:1.77;stroke-linecap:round;stroke-linejoin:round;}
</style>
<g>
	<g id="Layer_1-2">
		<path class="st0" d="M596.4,280.5c10.8-8.5,24.2,8.4,35-0.2s-2.5-25.5,8.3-34s24.2,8.4,35-0.2s-2.5-25.5,8.3-34s24.2,8.4,35-0.2"
			/>
		<circle class="st1" cx="195.9" cy="573.5" r="18"/>
		<path class="st2" d="M1.4,948.4c0.7,1.1,1.6,2.2,2.5,3.4c26.5,32.8,69-1.5,95.5,31.4s-16,67.2,10.5,100s69-1.4,95.5,31.4
			s-16,67.2,10.5,100"/>
		<path class="st1" d="M751.4,885.7l-22.4,4.4c-28.1,5.5-57.3-0.3-81.1-16.3l-59-39.6c-23.8-16-40.3-40.8-45.9-68.9l-13.7-69.7
			c-5.5-28.1,0.3-57.3,16.3-81.1l39.6-59c16-23.8,40.7-40.3,68.9-45.9l69.7-13.7c9.1-1.8,18.4-2.4,27.7-1.9"/>
		<polygon class="st3" points="102.5,237.7 47.7,190.5 116,166.6 		"/>
	</g>
</g>
</svg>
