<?xml version="1.0" encoding="utf-8"?>
<!-- Generator: Adobe Illustrator 23.0.1, SVG Export Plug-In . SVG Version: 6.00 Build 0)  -->
<svg version="1.1" id="Layer_1" xmlns="http://www.w3.org/2000/svg" xmlns:xlink="http://www.w3.org/1999/xlink" x="0px" y="0px"
	 viewBox="0 0 1366.6 746.1" style="enable-background:new 0 0 1366.6 746.1;" xml:space="preserve">
<style type="text/css">
	.st0{fill:none;stroke:#FFFFFF;stroke-width:2.4222;stroke-linecap:round;stroke-linejoin:round;stroke-miterlimit:10;}
	.st1{fill:none;stroke:#FFFFFF;stroke-width:1.4496;stroke-linecap:round;stroke-linejoin:round;stroke-miterlimit:10;}
	.st2{fill:none;stroke:#FFFFFF;stroke-width:2.4233;stroke-linejoin:round;stroke-miterlimit:10;}
	.st3{fill:none;stroke:#FFFFFF;stroke-width:2.4633;stroke-linejoin:round;stroke-miterlimit:10;}
	.st4{fill:none;stroke:#FFFFFF;stroke-width:1.7689;stroke-linecap:round;stroke-linejoin:round;stroke-miterlimit:10;}
</style>
<path class="st0" d="M1160.1,585.4c13.5-10.7,30.2,10.5,43.7-0.2c13.5-10.7-3.2-31.8,10.3-42.5c13.5-10.7,30.2,10.5,43.7-0.2
	c13.5-10.7-3.2-31.8,10.3-42.5c13.5-10.7,30.2,10.5,43.7-0.2"/>
<circle class="st1" cx="1032" cy="531.7" r="18"/>
<path class="st2" d="M1366,242.2l-46,25.2c-11.8,6.5-26,7.2-38.4,2l-104.4-43.7c-12.4-5.2-21.8-15.8-25.5-28.8L1120.9,88
	c-3.7-13-1.3-26.9,6.6-37.9l35.4-49.4"/>
<path class="st3" d="M0,490.2c16.2-0.6,33.2-7.6,47.5,6.6c22,22-6.5,50.5,15.5,72.4c22,22,50.5-6.5,72.4,15.5
	c22,22-6.5,50.5,15.5,72.4c22,22,50.5-6.5,72.5,15.5c22,22-6.5,50.5,15.5,72.5"/>
<polygon class="st4" points="181.2,334.4 126.3,287.2 194.6,263.3 "/>
</svg>
