<?xml version="1.0" encoding="utf-8"?>
<!-- Generator: Adobe Illustrator 23.0.1, SVG Export Plug-In . SVG Version: 6.00 Build 0)  -->
<svg version="1.1" id="Layer_1" xmlns="http://www.w3.org/2000/svg" xmlns:xlink="http://www.w3.org/1999/xlink" x="0px" y="0px"
	 viewBox="0 0 238.6 215" style="enable-background:new 0 0 238.6 215;" xml:space="preserve">
<style type="text/css">
	.st0{fill:url(#SVGID_1_);}
	.st1{fill:url(#SVGID_2_);}
</style>
<g>
	<g>
		<linearGradient id="SVGID_1_" gradientUnits="userSpaceOnUse" x1="0" y1="107.5" x2="238.5635" y2="107.5">
			<stop  offset="1.240079e-03" style="stop-color:#000000"/>
			<stop  offset="1" style="stop-color:#171717"/>
		</linearGradient>
		<path class="st0" d="M132.6,215h-25c-13.1,0-20-9.3-20-18.5s6.9-18.5,20-18.5h25c5,0,5.4-4.4,5.4-5.7c0-1.7-0.6-3.3-1.6-4.4
			c-1.1-1.2-2.7-1.8-4.8-1.8h-24.5c-9.2,0-18.9-6.5-18.9-18.5S98,129,107.1,129h24c1.6,0,3.8-0.3,5.3-1.7c1.2-1.2,1.4-2.7,1.4-3.5
			c0-1.1-0.4-4.7-5.1-4.7h-26c-7.2,0-11.6-3.1-14.1-5.7c-3.1-3.3-4.8-7.8-4.8-12.5c0-9.1,6.6-18.8,18.9-18.8h26c4.5,0,4.8-5,4.8-6
			s-0.2-6-4.8-6h-110C7.8,70,0,59.7,0,49.5C0,39.3,7.8,29,22.6,29h194c6.6,0,8.9-4.2,8.9-7.9c0-3.9-2.6-8.1-9.9-8.1h-193
			c-3.6,0-6.5-2.9-6.5-6.5S19,0,22.6,0h193c15.1,0,22.9,10.6,22.9,21.1c0,5.4-2,10.6-5.7,14.4c-2.8,3-8,6.5-16.2,6.5h-194
			c-7.1,0-9.6,4-9.6,7.5s2.5,7.5,9.6,7.5h110c8.8,0,17.8,6.5,17.8,19c0,4.7-1.5,9.2-4.2,12.7c-3.3,4.1-8.1,6.3-13.5,6.3h-26
			c-5.7,0-5.9,5.2-5.9,5.8c0,1.5,0.5,2.7,1.3,3.6c1,1.1,2.5,1.6,4.6,1.6h26c11.8,0,18.1,9.1,18.1,17.7c0,4.8-1.8,9.3-5.1,12.6
			c-2.5,2.6-7.1,5.6-14.5,5.6h-24c-5.5,0-5.9,4.2-5.9,5.5s0.4,5.5,5.9,5.5h24.5c5.8,0,11,2.2,14.5,6.2c3.1,3.5,4.8,8.2,4.8,13.1
			c0,10.7-7.9,18.7-18.4,18.7h-25c-5.2,0-7,2.8-7,5.5s1.8,5.5,7,5.5h25c3.6,0,6.5,2.9,6.5,6.5S136.2,215,132.6,215z"/>
	</g>
	<linearGradient id="SVGID_2_" gradientUnits="userSpaceOnUse" x1="155.125" y1="207.5" x2="170.125" y2="207.5">
		<stop  offset="1.240079e-03" style="stop-color:#000000"/>
		<stop  offset="1" style="stop-color:#171717"/>
	</linearGradient>
	<circle class="st1" cx="162.6" cy="207.5" r="7.5"/>
</g>
</svg>
