<svg xmlns="http://www.w3.org/2000/svg" viewBox="0 0 37.42 33.73"><defs><style>.cls-1{fill:#fff;}</style></defs><title>Tlogo</title><g id="Layer_2" data-name="Layer 2"><g id="Layer_1-2" data-name="Layer 1"><path class="cls-1" d="M20.8,33.73H16.88a2.91,2.91,0,1,1,0-5.81H20.8a.82.82,0,0,0,.85-.89,1,1,0,0,0-.25-.69,1,1,0,0,0-.75-.28H16.8a2.91,2.91,0,1,1,0-5.82h3.77A1.23,1.23,0,0,0,21.4,20a.77.77,0,0,0,.22-.55.71.71,0,0,0-.8-.74H16.74a2.93,2.93,0,0,1-2.21-.89,2.85,2.85,0,0,1-.76-2,2.9,2.9,0,0,1,3-2.95h4.08c.7,0,.75-.78.75-.94s0-.94-.75-.94H3.56A3.3,3.3,0,0,1,0,7.77,3.28,3.28,0,0,1,3.55,4.55H34a1.23,1.23,0,0,0,1.4-1.24C35.38,2.7,35,2,33.82,2H3.55a1,1,0,0,1-1-1,1,1,0,0,1,1-1H33.82a3.34,3.34,0,0,1,3.6,3.31,3.24,3.24,0,0,1-.9,2.26,3.37,3.37,0,0,1-2.54,1H3.55C2.43,6.59,2,7.22,2,7.77s.39,1.17,1.51,1.17H20.8a2.79,2.79,0,0,1,2.79,3,3.3,3.3,0,0,1-.65,2,2.66,2.66,0,0,1-2.12,1H16.74a.88.88,0,0,0-.93.91.81.81,0,0,0,.21.57.91.91,0,0,0,.72.25h4.08a2.79,2.79,0,0,1,2,4.75,3.06,3.06,0,0,1-2.28.88H16.82a.87.87,0,1,0,0,1.73h3.84a3,3,0,0,1,2.28,1A3.14,3.14,0,0,1,23.69,27,2.85,2.85,0,0,1,20.8,30H16.88c-.82,0-1.1.44-1.1.86s.28.86,1.1.86H20.8a1,1,0,0,1,1,1A1,1,0,0,1,20.8,33.73Z"/><circle class="cls-1" cx="25.51" cy="32.55" r="1.18"/></g></g></svg>